<mxfile host="65bd71144e">
    <diagram name="Pagina-1" id="gseirKFRvw-85E1EHNPF">
        <mxGraphModel dx="3828" dy="4612" grid="1" gridSize="10" guides="1" tooltips="1" connect="1" arrows="1" fold="1" page="0" pageScale="1" pageWidth="827" pageHeight="1169" math="0" shadow="0">
            <root>
                <mxCell id="0"/>
                <mxCell id="1" parent="0"/>
                <mxCell id="100" value="" style="whiteSpace=wrap;html=1;fontFamily=Courier New;strokeWidth=5;fillColor=none;fontColor=#000000;" vertex="1" parent="1">
                    <mxGeometry x="240" y="-880" width="870" height="790" as="geometry"/>
                </mxCell>
                <mxCell id="157" value="" style="whiteSpace=wrap;html=1;fontFamily=Courier New;strokeWidth=5;fillColor=none;fontColor=#000000;" vertex="1" parent="1">
                    <mxGeometry x="240" y="-810" width="870" height="390" as="geometry"/>
                </mxCell>
                <mxCell id="90" value="" style="whiteSpace=wrap;html=1;fontFamily=Courier New;strokeWidth=3;fillColor=none;fontColor=#000000;" vertex="1" parent="1">
                    <mxGeometry x="380" y="-630" width="580" height="170" as="geometry"/>
                </mxCell>
                <mxCell id="91" value="" style="whiteSpace=wrap;html=1;fontFamily=Courier New;strokeWidth=3;fillColor=none;fontColor=#000000;" vertex="1" parent="1">
                    <mxGeometry x="400" y="-750" width="540" height="60" as="geometry"/>
                </mxCell>
                <mxCell id="4jmITqAbGPKn8g1PhYLc-20" value="&lt;b style=&quot;font-family: &amp;quot;Courier New&amp;quot;;&quot;&gt;Acquirente&lt;/b&gt;&lt;span style=&quot;color: rgb(0, 0, 0); font-family: &amp;quot;Courier New&amp;quot;;&quot;&gt;: id, mail, nome, cognome,&amp;nbsp;&lt;/span&gt;&lt;u style=&quot;font-family: &amp;quot;Courier New&amp;quot;;&quot;&gt;BigliettiComprati&lt;/u&gt;&lt;div style=&quot;font-family: &amp;quot;Courier New&amp;quot;;&quot;&gt;&lt;b&gt;BigliettoComprato:&amp;nbsp;&lt;/b&gt;id,&amp;nbsp;&lt;u&gt;TipoBiglietto&lt;/u&gt;, nominativo&lt;/div&gt;&lt;div style=&quot;font-family: &amp;quot;Courier New&amp;quot;;&quot;&gt;&lt;b&gt;TipoBiglietto&lt;/b&gt;: id, tipo,&amp;nbsp;&lt;u&gt;Evento&lt;/u&gt;, costo, descrizione&lt;/div&gt;&lt;div style=&quot;font-family: &amp;quot;Courier New&amp;quot;;&quot;&gt;&lt;b&gt;Stock Biglietto&lt;/b&gt;: id,&amp;nbsp;&lt;u&gt;TipoBiglietto&lt;/u&gt;, quantità&lt;br&gt;&lt;b&gt;Evento&lt;/b&gt;: id,&amp;nbsp;&lt;u&gt;TipiBiglietti&lt;/u&gt;,&amp;nbsp;&lt;u&gt;Sagra&lt;/u&gt;, data, info aggiuntive.&lt;/div&gt;&lt;div style=&quot;font-family: &amp;quot;Courier New&amp;quot;;&quot;&gt;&lt;b&gt;Sagra&lt;/b&gt;: id, nome, descrizione, luogo,&amp;nbsp;&lt;u&gt;Feedbacks&lt;/u&gt;,&amp;nbsp;&lt;u&gt;Eventi&lt;/u&gt;&lt;/div&gt;&lt;div style=&quot;font-family: &amp;quot;Courier New&amp;quot;;&quot;&gt;&lt;div&gt;&lt;b&gt;Organizzatore&lt;/b&gt;: id, mail, nomeOrganizzazione,&amp;nbsp;&lt;u&gt;Sagre&lt;/u&gt;.&lt;/div&gt;&lt;div&gt;&lt;b&gt;Feedback&lt;/b&gt;: id, rating, titolo, &amp;nbsp;recensione,&amp;nbsp;&lt;u&gt;Acquirente&lt;/u&gt;&lt;/div&gt;&lt;div&gt;&lt;b&gt;Admin&lt;/b&gt;: id, mail, nome, cognome.&lt;/div&gt;&lt;/div&gt;" style="text;html=1;align=left;verticalAlign=middle;whiteSpace=wrap;rounded=0;" parent="1" vertex="1">
                    <mxGeometry x="245" y="-20" width="515" height="130" as="geometry"/>
                </mxCell>
                <mxCell id="4jmITqAbGPKn8g1PhYLc-21" value="&lt;div&gt;&lt;b&gt;Login&lt;/b&gt;: autenticazione e riconoscimento utente --&amp;gt; reindirizzamento a homePage&lt;/div&gt;&lt;div&gt;&lt;b&gt;Registrazione&lt;/b&gt;: registrazione acquirente, con relativi campi. Pass length &amp;gt;= 8&lt;/div&gt;&lt;b&gt;HomePage&lt;/b&gt;: logo, lista Sagre (a cui attualmente non partecipa), navebar di &amp;nbsp;ricerca, MyEvents btn&lt;div&gt;&lt;b&gt;MyEvents (acquirente): &lt;/b&gt;lista di biglietti comprati e relativo evento. Due sezioni disponibili:&lt;/div&gt;&lt;div&gt;&lt;span style=&quot;white-space: pre;&quot;&gt;&#x9;- &lt;b&gt;EventiFuturi&lt;/b&gt;: eventi comprati a cui non si è ancora partecipato.&lt;/span&gt;&lt;br&gt;&lt;/div&gt;&lt;div&gt;&lt;span style=&quot;white-space: pre;&quot;&gt;&#x9;- &lt;b&gt;EventiPassati&lt;/b&gt;: eventi a cui si è partecipato, quindi conclusi. Si può lasciare un feedback.&lt;/span&gt;&lt;/div&gt;&lt;div&gt;&lt;span style=&quot;white-space: pre;&quot;&gt;&lt;b&gt;Le Mie Sagre (organizzatore)&lt;/b&gt;:&lt;/span&gt;&lt;/div&gt;&lt;div&gt;&lt;div&gt;&lt;span style=&quot;white-space: pre;&quot;&gt;&#x9;- &lt;/span&gt;&lt;b style=&quot;white-space: pre;&quot;&gt;EventiFuturi&lt;/b&gt;&lt;span style=&quot;white-space: pre;&quot;&gt;: eventi organizzati non ancora conclusi. Visualizza sagra. Possibilità di modifica dell&#39;evento.&lt;/span&gt;&lt;br&gt;&lt;/div&gt;&lt;div&gt;&lt;span style=&quot;white-space: pre;&quot;&gt;&#x9;- &lt;/span&gt;&lt;b style=&quot;white-space: pre;&quot;&gt;EventiPassati&lt;/b&gt;&lt;span style=&quot;white-space: pre;&quot;&gt;: eventi terminati. Si possono visualizzare i feedback.&lt;/span&gt;&lt;/div&gt;&lt;/div&gt;&lt;div&gt;&lt;b style=&quot;white-space: pre;&quot;&gt;&lt;span style=&quot;white-space: pre;&quot;&gt;&#x9;- &lt;/span&gt;AggiungiSagra (Organizzatore)&lt;/b&gt;&lt;span style=&quot;white-space: pre;&quot;&gt;: aggiunge una sagra, con relativi dettagli. Va a finire nelle mie sagre&lt;/span&gt;&lt;/div&gt;&lt;div&gt;&lt;b style=&quot;white-space: pre;&quot;&gt;&#x9;- AggiungiEvento (Organizzatore)&lt;/b&gt;&lt;span style=&quot;white-space: pre;&quot;&gt;: aggiunge un evento per una determina sagra (già esistente), con relativi dettagli ulteriori tra cui la data&amp;nbsp;&lt;/span&gt;&lt;/div&gt;&lt;div&gt;&lt;span style=&quot;white-space: pre;&quot;&gt;&lt;span style=&quot;white-space: pre;&quot;&gt;&#x9;&lt;/span&gt;&lt;span style=&quot;white-space: pre;&quot;&gt;&#x9;&lt;/span&gt;&lt;span style=&quot;white-space: pre;&quot;&gt;&#x9;&lt;/span&gt;&lt;span style=&quot;white-space: pre;&quot;&gt;&#x9;&lt;/span&gt;&lt;span style=&quot;white-space: pre;&quot;&gt;&#x9;&lt;/span&gt;&lt;span style=&quot;white-space: pre;&quot;&gt;&#x9;&lt;/span&gt;&lt;span style=&quot;white-space: pre;&quot;&gt;&#x9;&lt;/span&gt;&lt;span style=&quot;white-space: pre;&quot;&gt;&#x9;&lt;/span&gt;dell&#39;evento.&lt;/span&gt;&lt;span style=&quot;white-space: pre;&quot;&gt;&lt;br&gt;&lt;/span&gt;&lt;/div&gt;&lt;div&gt;&lt;span style=&quot;white-space: pre;&quot;&gt;&lt;br&gt;&lt;/span&gt;&lt;/div&gt;&lt;div&gt;&lt;div&gt;&lt;span style=&quot;white-space: pre;&quot;&gt;&lt;b&gt;Sagra (acquirente)&lt;/b&gt;: acquirente cerca e visualizza una sagra  determinato biglietto, indicandone la quantità, per una determinata sagra.&lt;/span&gt;&lt;/div&gt;&lt;/div&gt;&lt;div&gt;&lt;span style=&quot;white-space: pre;&quot;&gt;&lt;br&gt;&lt;/span&gt;&lt;/div&gt;&lt;div&gt;&lt;span style=&quot;white-space: pre;&quot;&gt;&lt;b&gt;AggiungiOrganizzatore (Admin) &lt;/b&gt;: pagina che permette di aggiungere una organizzatore di sagre.&lt;/span&gt;&lt;/div&gt;&lt;div&gt;&lt;span style=&quot;white-space: pre;&quot;&gt;&lt;br&gt;&lt;/span&gt;&lt;/div&gt;" style="text;html=1;align=left;verticalAlign=middle;whiteSpace=wrap;rounded=0;" parent="1" vertex="1">
                    <mxGeometry x="245" y="200" width="765" height="180" as="geometry"/>
                </mxCell>
                <mxCell id="4jmITqAbGPKn8g1PhYLc-28" value="&lt;b&gt;Reminder&lt;/b&gt;: una organizzazione organizza una sagra per un paese (es. Sagra della Coratella di Città di Castello). Gli eventi sono relativi a una sagra. Ne indicano la data e l&#39;ora ed eventualmente alcuni dettagli aggiuntivi (live band solo per un determinato giorno x, giorno y c&#39;è la corsa coi sacchi...)&lt;div&gt;&lt;br&gt;&lt;/div&gt;&lt;div&gt;Sagra contiene le informazioni relative alla sagra (cosa si mangia). Info uguali a tutti gli eventi per quella sagra&lt;/div&gt;&lt;div&gt;Evento è relativo a una sagra e contiene ulteriori informazioni di attività che si svolgono in quella data.&lt;/div&gt;" style="text;html=1;align=left;verticalAlign=middle;whiteSpace=wrap;rounded=0;" parent="1" vertex="1">
                    <mxGeometry x="230" y="460" width="715" height="30" as="geometry"/>
                </mxCell>
                <mxCell id="80" value="&lt;b&gt;PROGETTO SAGRADA FAMILIA&lt;/b&gt;" style="text;html=1;align=center;verticalAlign=middle;whiteSpace=wrap;rounded=0;fontSize=36;fontFamily=Courier New;fontColor=#000000;" vertex="1" parent="1">
                    <mxGeometry x="370" y="-900" width="600" height="120" as="geometry"/>
                </mxCell>
                <mxCell id="81" value="&lt;b&gt;&lt;font style=&quot;font-size: 24px;&quot;&gt;attori&lt;/font&gt;&lt;/b&gt;" style="text;html=1;align=center;verticalAlign=middle;whiteSpace=wrap;rounded=0;fontSize=36;fontFamily=Courier New;fontColor=#000000;" vertex="1" parent="1">
                    <mxGeometry x="960" y="-735" width="120" height="30" as="geometry"/>
                </mxCell>
                <mxCell id="82" value="ACQUIRENTE" style="rounded=0;whiteSpace=wrap;html=1;fillColor=#CCCCCC;strokeWidth=2;" vertex="1" parent="1">
                    <mxGeometry x="410" y="-740" width="120" height="40" as="geometry"/>
                </mxCell>
                <mxCell id="83" value="ADMIN" style="rounded=0;whiteSpace=wrap;html=1;fillColor=#CCCCCC;strokeWidth=2;" vertex="1" parent="1">
                    <mxGeometry x="810" y="-740" width="120" height="40" as="geometry"/>
                </mxCell>
                <mxCell id="84" value="ORGANIZZATORE" style="rounded=0;whiteSpace=wrap;html=1;fillColor=#CCCCCC;strokeWidth=2;" vertex="1" parent="1">
                    <mxGeometry x="610" y="-740" width="120" height="40" as="geometry"/>
                </mxCell>
                <mxCell id="85" value="CRUD evento&lt;br&gt;visualizzazione vendite" style="rounded=0;whiteSpace=wrap;html=1;fillColor=#CCCCCC;strokeWidth=2;" vertex="1" parent="1">
                    <mxGeometry x="590" y="-520" width="160" height="50" as="geometry"/>
                </mxCell>
                <mxCell id="86" value="log in&lt;br&gt;sign up" style="rounded=0;whiteSpace=wrap;html=1;fillColor=#CCCCCC;strokeWidth=2;" vertex="1" parent="1">
                    <mxGeometry x="410" y="-620" width="520" height="40" as="geometry"/>
                </mxCell>
                <mxCell id="87" value="add/delete organizzatore&lt;br&gt;delete acquirente" style="rounded=0;whiteSpace=wrap;html=1;fillColor=#CCCCCC;strokeWidth=2;" vertex="1" parent="1">
                    <mxGeometry x="770" y="-520" width="160" height="50" as="geometry"/>
                </mxCell>
                <mxCell id="88" value="acquisto biglietto&lt;br&gt;visualizzazione biglietti&lt;br&gt;creazione feedback" style="rounded=0;whiteSpace=wrap;html=1;fillColor=#CCCCCC;strokeWidth=2;" vertex="1" parent="1">
                    <mxGeometry x="410" y="-520" width="160" height="50" as="geometry"/>
                </mxCell>
                <mxCell id="89" style="edgeStyle=none;html=1;strokeWidth=2;endArrow=blockThin;endFill=1;endSize=3;startSize=3;exitX=0.5;exitY=1;exitDx=0;exitDy=0;entryX=0.5;entryY=0;entryDx=0;entryDy=0;" edge="1" parent="1" source="84" target="86">
                    <mxGeometry relative="1" as="geometry">
                        <mxPoint x="1000" y="-580" as="sourcePoint"/>
                        <mxPoint x="1040" y="-550" as="targetPoint"/>
                        <Array as="points"/>
                    </mxGeometry>
                </mxCell>
                <mxCell id="92" value="&lt;b&gt;&lt;font style=&quot;font-size: 24px;&quot;&gt;use cases&lt;/font&gt;&lt;/b&gt;" style="text;html=1;align=center;verticalAlign=middle;whiteSpace=wrap;rounded=0;fontSize=36;fontFamily=Courier New;fontColor=#000000;" vertex="1" parent="1">
                    <mxGeometry x="960" y="-560" width="120" height="30" as="geometry"/>
                </mxCell>
                <mxCell id="93" style="edgeStyle=none;html=1;strokeWidth=2;endArrow=blockThin;endFill=1;endSize=3;startSize=3;exitX=0.5;exitY=1;exitDx=0;exitDy=0;entryX=0.5;entryY=0;entryDx=0;entryDy=0;" edge="1" parent="1" source="82" target="86">
                    <mxGeometry relative="1" as="geometry">
                        <mxPoint x="680" y="-690" as="sourcePoint"/>
                        <mxPoint x="680" y="-610" as="targetPoint"/>
                        <Array as="points">
                            <mxPoint x="470" y="-660"/>
                            <mxPoint x="670" y="-660"/>
                        </Array>
                    </mxGeometry>
                </mxCell>
                <mxCell id="94" style="edgeStyle=none;html=1;strokeWidth=2;endArrow=blockThin;endFill=1;endSize=3;startSize=3;exitX=0.5;exitY=1;exitDx=0;exitDy=0;entryX=0.5;entryY=0;entryDx=0;entryDy=0;" edge="1" parent="1" source="83" target="86">
                    <mxGeometry relative="1" as="geometry">
                        <mxPoint x="680" y="-690" as="sourcePoint"/>
                        <mxPoint x="680" y="-610" as="targetPoint"/>
                        <Array as="points">
                            <mxPoint x="870" y="-660"/>
                            <mxPoint x="670" y="-660"/>
                        </Array>
                    </mxGeometry>
                </mxCell>
                <mxCell id="95" style="edgeStyle=none;html=1;strokeWidth=2;endArrow=blockThin;endFill=1;endSize=3;startSize=3;exitX=0.5;exitY=1;exitDx=0;exitDy=0;entryX=0.5;entryY=0;entryDx=0;entryDy=0;" edge="1" parent="1" source="86" target="85">
                    <mxGeometry relative="1" as="geometry">
                        <mxPoint x="680" y="-690" as="sourcePoint"/>
                        <mxPoint x="680" y="-610" as="targetPoint"/>
                        <Array as="points"/>
                    </mxGeometry>
                </mxCell>
                <mxCell id="96" style="edgeStyle=none;html=1;strokeWidth=2;endArrow=blockThin;endFill=1;endSize=3;startSize=3;exitX=0.5;exitY=1;exitDx=0;exitDy=0;entryX=0.5;entryY=0;entryDx=0;entryDy=0;" edge="1" parent="1" source="86" target="87">
                    <mxGeometry relative="1" as="geometry">
                        <mxPoint x="680" y="-570" as="sourcePoint"/>
                        <mxPoint x="680" y="-520" as="targetPoint"/>
                        <Array as="points">
                            <mxPoint x="670" y="-550"/>
                            <mxPoint x="850" y="-550"/>
                        </Array>
                    </mxGeometry>
                </mxCell>
                <mxCell id="97" style="edgeStyle=none;html=1;strokeWidth=2;endArrow=blockThin;endFill=1;endSize=3;startSize=3;exitX=0.5;exitY=1;exitDx=0;exitDy=0;entryX=0.5;entryY=0;entryDx=0;entryDy=0;" edge="1" parent="1" source="86" target="88">
                    <mxGeometry relative="1" as="geometry">
                        <mxPoint x="680" y="-570" as="sourcePoint"/>
                        <mxPoint x="680" y="-510" as="targetPoint"/>
                        <Array as="points">
                            <mxPoint x="670" y="-550"/>
                            <mxPoint x="490" y="-550"/>
                        </Array>
                    </mxGeometry>
                </mxCell>
                <mxCell id="98" value="Biglietto&lt;span style=&quot;color: rgb(0, 0, 0);&quot;&gt;Comprato&lt;/span&gt;" style="rounded=0;whiteSpace=wrap;html=1;fillColor=#CCCCCC;strokeWidth=2;" vertex="1" parent="1">
                    <mxGeometry x="250" y="-350" width="120" height="42" as="geometry"/>
                </mxCell>
                <mxCell id="99" style="edgeStyle=none;html=1;strokeWidth=2;endArrow=blockThin;endFill=1;endSize=3;startSize=3;entryX=1;entryY=0.5;entryDx=0;entryDy=0;exitX=0.5;exitY=0;exitDx=0;exitDy=0;" edge="1" parent="1" source="103" target="107">
                    <mxGeometry relative="1" as="geometry">
                        <mxPoint x="737.5" y="-128" as="sourcePoint"/>
                        <mxPoint x="747.5" y="-88" as="targetPoint"/>
                        <Array as="points">
                            <mxPoint x="1038" y="-209"/>
                        </Array>
                    </mxGeometry>
                </mxCell>
                <mxCell id="101" value="Acquirente" style="rounded=0;whiteSpace=wrap;html=1;fillColor=#CCCCCC;strokeWidth=2;" vertex="1" parent="1">
                    <mxGeometry x="250" y="-230" width="120" height="42" as="geometry"/>
                </mxCell>
                <mxCell id="102" value="Feedback" style="rounded=0;whiteSpace=wrap;html=1;fillColor=#CCCCCC;strokeWidth=2;" vertex="1" parent="1">
                    <mxGeometry x="377.5" y="-150" width="120" height="42" as="geometry"/>
                </mxCell>
                <mxCell id="103" value="Admin" style="rounded=0;whiteSpace=wrap;html=1;fillColor=#CCCCCC;strokeWidth=2;" vertex="1" parent="1">
                    <mxGeometry x="977.5" y="-146" width="120" height="42" as="geometry"/>
                </mxCell>
                <mxCell id="104" value="Evento" style="rounded=0;whiteSpace=wrap;html=1;fillColor=#CCCCCC;strokeWidth=2;" vertex="1" parent="1">
                    <mxGeometry x="457.5" y="-272" width="120" height="42" as="geometry"/>
                </mxCell>
                <mxCell id="105" value="TipoBiglietto" style="rounded=0;whiteSpace=wrap;html=1;fillColor=#CCCCCC;strokeWidth=2;" vertex="1" parent="1">
                    <mxGeometry x="457.5" y="-390" width="120" height="42" as="geometry"/>
                </mxCell>
                <mxCell id="106" value="StockBiglietto" style="rounded=0;whiteSpace=wrap;html=1;fillColor=#CCCCCC;strokeWidth=2;" vertex="1" parent="1">
                    <mxGeometry x="697.5" y="-350" width="120" height="42" as="geometry"/>
                </mxCell>
                <mxCell id="107" value="Organizzatore" style="rounded=0;whiteSpace=wrap;html=1;fillColor=#CCCCCC;strokeWidth=2;" vertex="1" parent="1">
                    <mxGeometry x="817.5" y="-230" width="120" height="42" as="geometry"/>
                </mxCell>
                <mxCell id="108" value="Sagra" style="rounded=0;whiteSpace=wrap;html=1;fillColor=#CCCCCC;strokeWidth=2;" vertex="1" parent="1">
                    <mxGeometry x="617.5" y="-188" width="120" height="42" as="geometry"/>
                </mxCell>
                <mxCell id="109" style="edgeStyle=none;html=1;strokeWidth=2;endArrow=blockThin;endFill=1;endSize=3;startSize=3;entryX=0;entryY=0.5;entryDx=0;entryDy=0;exitX=0.5;exitY=1;exitDx=0;exitDy=0;" edge="1" parent="1" source="101" target="102">
                    <mxGeometry relative="1" as="geometry">
                        <mxPoint x="887.5" y="-98" as="sourcePoint"/>
                        <mxPoint x="887.5" y="-178" as="targetPoint"/>
                        <Array as="points">
                            <mxPoint x="310" y="-129"/>
                        </Array>
                    </mxGeometry>
                </mxCell>
                <mxCell id="110" style="edgeStyle=none;html=1;strokeWidth=2;endArrow=blockThin;endFill=1;endSize=3;startSize=3;entryX=0;entryY=0.5;entryDx=0;entryDy=0;exitX=0;exitY=0.5;exitDx=0;exitDy=0;" edge="1" parent="1" source="108" target="104">
                    <mxGeometry relative="1" as="geometry">
                        <mxPoint x="327.5" y="-178" as="sourcePoint"/>
                        <mxPoint x="387.5" y="-119" as="targetPoint"/>
                        <Array as="points">
                            <mxPoint x="417.5" y="-167"/>
                            <mxPoint x="417.5" y="-250"/>
                        </Array>
                    </mxGeometry>
                </mxCell>
                <mxCell id="111" style="edgeStyle=none;html=1;strokeWidth=2;endArrow=blockThin;endFill=1;endSize=3;startSize=3;entryX=0.5;entryY=1;entryDx=0;entryDy=0;exitX=0.5;exitY=0;exitDx=0;exitDy=0;" edge="1" parent="1" source="101" target="98">
                    <mxGeometry relative="1" as="geometry">
                        <mxPoint x="887.5" y="-98" as="sourcePoint"/>
                        <mxPoint x="887.5" y="-178" as="targetPoint"/>
                        <Array as="points"/>
                    </mxGeometry>
                </mxCell>
                <mxCell id="112" style="edgeStyle=none;html=1;strokeWidth=2;endArrow=blockThin;endFill=1;endSize=3;startSize=3;entryX=0;entryY=0.5;entryDx=0;entryDy=0;exitX=0.5;exitY=0;exitDx=0;exitDy=0;" edge="1" parent="1" source="98" target="105">
                    <mxGeometry relative="1" as="geometry">
                        <mxPoint x="327.5" y="-220" as="sourcePoint"/>
                        <mxPoint x="327.5" y="-298" as="targetPoint"/>
                        <Array as="points">
                            <mxPoint x="310" y="-370"/>
                        </Array>
                    </mxGeometry>
                </mxCell>
                <mxCell id="114" style="edgeStyle=none;html=1;strokeWidth=2;endArrow=blockThin;endFill=1;endSize=3;startSize=3;entryX=1;entryY=0.5;entryDx=0;entryDy=0;exitX=0.5;exitY=0;exitDx=0;exitDy=0;" edge="1" parent="1" source="106" target="105">
                    <mxGeometry relative="1" as="geometry">
                        <mxPoint x="527.5" y="-338" as="sourcePoint"/>
                        <mxPoint x="527.5" y="-262" as="targetPoint"/>
                        <Array as="points">
                            <mxPoint x="757.5" y="-369"/>
                        </Array>
                    </mxGeometry>
                </mxCell>
                <mxCell id="115" style="edgeStyle=none;html=1;strokeWidth=2;endArrow=blockThin;endFill=1;endSize=3;startSize=3;entryX=0.5;entryY=1;entryDx=0;entryDy=0;exitX=1;exitY=0.5;exitDx=0;exitDy=0;" edge="1" parent="1" source="104" target="106">
                    <mxGeometry relative="1" as="geometry">
                        <mxPoint x="767.5" y="-340" as="sourcePoint"/>
                        <mxPoint x="587.5" y="-359" as="targetPoint"/>
                        <Array as="points">
                            <mxPoint x="757.5" y="-251"/>
                        </Array>
                    </mxGeometry>
                </mxCell>
                <mxCell id="116" style="edgeStyle=none;html=1;strokeWidth=2;endArrow=blockThin;endFill=1;endSize=3;startSize=3;entryX=1;entryY=0.5;entryDx=0;entryDy=0;exitX=0.5;exitY=1;exitDx=0;exitDy=0;" edge="1" parent="1" source="107" target="108">
                    <mxGeometry relative="1" as="geometry">
                        <mxPoint x="887.5" y="-98" as="sourcePoint"/>
                        <mxPoint x="887.5" y="-178" as="targetPoint"/>
                        <Array as="points">
                            <mxPoint x="877.5" y="-167"/>
                        </Array>
                    </mxGeometry>
                </mxCell>
                <mxCell id="117" style="edgeStyle=none;html=1;strokeWidth=2;endArrow=blockThin;endFill=1;endSize=3;startSize=3;entryX=1;entryY=0.5;entryDx=0;entryDy=0;exitX=0.5;exitY=0;exitDx=0;exitDy=0;" edge="1" parent="1" source="107" target="106">
                    <mxGeometry relative="1" as="geometry">
                        <mxPoint x="827.5" y="-199" as="sourcePoint"/>
                        <mxPoint x="687.5" y="-178" as="targetPoint"/>
                        <Array as="points">
                            <mxPoint x="877.5" y="-329"/>
                        </Array>
                    </mxGeometry>
                </mxCell>
                <mxCell id="118" style="edgeStyle=none;html=1;strokeWidth=2;endArrow=blockThin;endFill=1;endSize=3;startSize=3;entryX=0.5;entryY=1;entryDx=0;entryDy=0;exitX=0;exitY=0.5;exitDx=0;exitDy=0;" edge="1" parent="1" source="107" target="104">
                    <mxGeometry relative="1" as="geometry">
                        <mxPoint x="887.5" y="-178" as="sourcePoint"/>
                        <mxPoint x="747.5" y="-157" as="targetPoint"/>
                        <Array as="points">
                            <mxPoint x="517.5" y="-209"/>
                        </Array>
                    </mxGeometry>
                </mxCell>
                <mxCell id="119" style="edgeStyle=none;html=1;strokeWidth=2;endArrow=blockThin;endFill=1;endSize=3;startSize=3;entryX=1;entryY=0.5;entryDx=0;entryDy=0;exitX=0.5;exitY=1;exitDx=0;exitDy=0;" edge="1" parent="1" source="108" target="102">
                    <mxGeometry relative="1" as="geometry">
                        <mxPoint x="887.5" y="-178" as="sourcePoint"/>
                        <mxPoint x="747.5" y="-157" as="targetPoint"/>
                        <Array as="points">
                            <mxPoint x="677.5" y="-129"/>
                        </Array>
                    </mxGeometry>
                </mxCell>
                <mxCell id="120" value="&lt;b&gt;&lt;font&gt;riferisce&lt;/font&gt;&lt;/b&gt;" style="text;html=1;align=center;verticalAlign=middle;whiteSpace=wrap;rounded=0;fontSize=12;fontFamily=Courier New;fontColor=#000000;" vertex="1" parent="1">
                    <mxGeometry x="347.5" y="-400" width="50" height="30" as="geometry"/>
                </mxCell>
                <mxCell id="121" value="&lt;b&gt;&lt;font&gt;1&lt;/font&gt;&lt;/b&gt;" style="text;html=1;align=center;verticalAlign=middle;whiteSpace=wrap;rounded=0;fontSize=12;fontFamily=Courier New;fontColor=#000000;" vertex="1" parent="1">
                    <mxGeometry x="282.5" y="-260" width="30" height="30" as="geometry"/>
                </mxCell>
                <mxCell id="122" value="&lt;b&gt;&lt;font&gt;n&lt;/font&gt;&lt;/b&gt;" style="text;html=1;align=center;verticalAlign=middle;whiteSpace=wrap;rounded=0;fontSize=12;fontFamily=Courier New;fontColor=#000000;" vertex="1" parent="1">
                    <mxGeometry x="310" y="-311" width="30" height="32" as="geometry"/>
                </mxCell>
                <mxCell id="123" value="&lt;b&gt;&lt;font&gt;n&lt;/font&gt;&lt;/b&gt;" style="text;html=1;align=center;verticalAlign=middle;whiteSpace=wrap;rounded=0;fontSize=12;fontFamily=Courier New;fontColor=#000000;" vertex="1" parent="1">
                    <mxGeometry x="347.5" y="-128" width="30" height="30" as="geometry"/>
                </mxCell>
                <mxCell id="124" value="&lt;b&gt;&lt;font&gt;1&lt;/font&gt;&lt;/b&gt;" style="text;html=1;align=center;verticalAlign=middle;whiteSpace=wrap;rounded=0;fontSize=12;fontFamily=Courier New;fontColor=#000000;" vertex="1" parent="1">
                    <mxGeometry x="310" y="-188" width="30" height="30" as="geometry"/>
                </mxCell>
                <mxCell id="125" value="&lt;b&gt;&lt;font&gt;1&lt;/font&gt;&lt;/b&gt;" style="text;html=1;align=center;verticalAlign=middle;whiteSpace=wrap;rounded=0;fontSize=12;fontFamily=Courier New;fontColor=#000000;" vertex="1" parent="1">
                    <mxGeometry x="427.5" y="-400" width="30" height="30" as="geometry"/>
                </mxCell>
                <mxCell id="126" value="&lt;b&gt;&lt;font&gt;n&lt;/font&gt;&lt;/b&gt;" style="text;html=1;align=center;verticalAlign=middle;whiteSpace=wrap;rounded=0;fontSize=12;fontFamily=Courier New;fontColor=#000000;" vertex="1" parent="1">
                    <mxGeometry x="280" y="-380" width="30" height="30" as="geometry"/>
                </mxCell>
                <mxCell id="127" value="&lt;b&gt;&lt;font&gt;1&lt;/font&gt;&lt;/b&gt;" style="text;html=1;align=center;verticalAlign=middle;whiteSpace=wrap;rounded=0;fontSize=12;fontFamily=Courier New;fontColor=#000000;" vertex="1" parent="1">
                    <mxGeometry x="577.5" y="-400" width="30" height="30" as="geometry"/>
                </mxCell>
                <mxCell id="128" value="&lt;b&gt;&lt;font&gt;1&lt;/font&gt;&lt;/b&gt;" style="text;html=1;align=center;verticalAlign=middle;whiteSpace=wrap;rounded=0;fontSize=12;fontFamily=Courier New;fontColor=#000000;" vertex="1" parent="1">
                    <mxGeometry x="757.5" y="-380" width="30" height="30" as="geometry"/>
                </mxCell>
                <mxCell id="131" value="&lt;b&gt;&lt;font&gt;1&lt;/font&gt;&lt;/b&gt;" style="text;html=1;align=center;verticalAlign=middle;whiteSpace=wrap;rounded=0;fontSize=12;fontFamily=Courier New;fontColor=#000000;" vertex="1" parent="1">
                    <mxGeometry x="577.5" y="-280" width="30" height="30" as="geometry"/>
                </mxCell>
                <mxCell id="132" value="&lt;b&gt;&lt;font&gt;n&lt;/font&gt;&lt;/b&gt;" style="text;html=1;align=center;verticalAlign=middle;whiteSpace=wrap;rounded=0;fontSize=12;fontFamily=Courier New;fontColor=#000000;" vertex="1" parent="1">
                    <mxGeometry x="727.5" y="-308" width="30" height="30" as="geometry"/>
                </mxCell>
                <mxCell id="133" value="&lt;b&gt;&lt;font&gt;1&lt;/font&gt;&lt;/b&gt;" style="text;html=1;align=center;verticalAlign=middle;whiteSpace=wrap;rounded=0;fontSize=12;fontFamily=Courier New;fontColor=#000000;" vertex="1" parent="1">
                    <mxGeometry x="787.5" y="-240" width="30" height="30" as="geometry"/>
                </mxCell>
                <mxCell id="134" value="&lt;b&gt;&lt;font&gt;n&lt;/font&gt;&lt;/b&gt;" style="text;html=1;align=center;verticalAlign=middle;whiteSpace=wrap;rounded=0;fontSize=12;fontFamily=Courier New;fontColor=#000000;" vertex="1" parent="1">
                    <mxGeometry x="487.5" y="-230" width="30" height="30" as="geometry"/>
                </mxCell>
                <mxCell id="135" value="&lt;b&gt;&lt;font&gt;1&lt;/font&gt;&lt;/b&gt;" style="text;html=1;align=center;verticalAlign=middle;whiteSpace=wrap;rounded=0;fontSize=12;fontFamily=Courier New;fontColor=#000000;" vertex="1" parent="1">
                    <mxGeometry x="1010" y="-176" width="30" height="30" as="geometry"/>
                </mxCell>
                <mxCell id="136" value="&lt;b&gt;&lt;font&gt;n&lt;/font&gt;&lt;/b&gt;" style="text;html=1;align=center;verticalAlign=middle;whiteSpace=wrap;rounded=0;fontSize=12;fontFamily=Courier New;fontColor=#000000;" vertex="1" parent="1">
                    <mxGeometry x="937.5" y="-240" width="30" height="30" as="geometry"/>
                </mxCell>
                <mxCell id="137" value="&lt;b&gt;&lt;font&gt;1&lt;/font&gt;&lt;/b&gt;" style="text;html=1;align=center;verticalAlign=middle;whiteSpace=wrap;rounded=0;fontSize=12;fontFamily=Courier New;fontColor=#000000;" vertex="1" parent="1">
                    <mxGeometry x="877.5" y="-188" width="30" height="30" as="geometry"/>
                </mxCell>
                <mxCell id="138" value="&lt;b&gt;&lt;font&gt;n&lt;/font&gt;&lt;/b&gt;" style="text;html=1;align=center;verticalAlign=middle;whiteSpace=wrap;rounded=0;fontSize=12;fontFamily=Courier New;fontColor=#000000;" vertex="1" parent="1">
                    <mxGeometry x="737.5" y="-170" width="30" height="30" as="geometry"/>
                </mxCell>
                <mxCell id="139" value="&lt;b&gt;&lt;font&gt;n&lt;/font&gt;&lt;/b&gt;" style="text;html=1;align=center;verticalAlign=middle;whiteSpace=wrap;rounded=0;fontSize=12;fontFamily=Courier New;fontColor=#000000;" vertex="1" parent="1">
                    <mxGeometry x="497.5" y="-128" width="30" height="30" as="geometry"/>
                </mxCell>
                <mxCell id="140" value="&lt;b&gt;&lt;font&gt;1&lt;/font&gt;&lt;/b&gt;" style="text;html=1;align=center;verticalAlign=middle;whiteSpace=wrap;rounded=0;fontSize=12;fontFamily=Courier New;fontColor=#000000;" vertex="1" parent="1">
                    <mxGeometry x="677.5" y="-146" width="30" height="30" as="geometry"/>
                </mxCell>
                <mxCell id="141" value="&lt;b&gt;&lt;font&gt;1&lt;/font&gt;&lt;/b&gt;" style="text;html=1;align=center;verticalAlign=middle;whiteSpace=wrap;rounded=0;fontSize=12;fontFamily=Courier New;fontColor=#000000;" vertex="1" parent="1">
                    <mxGeometry x="587.5" y="-198" width="30" height="30" as="geometry"/>
                </mxCell>
                <mxCell id="142" value="&lt;b&gt;&lt;font&gt;n&lt;/font&gt;&lt;/b&gt;" style="text;html=1;align=center;verticalAlign=middle;whiteSpace=wrap;rounded=0;fontSize=12;fontFamily=Courier New;fontColor=#000000;" vertex="1" parent="1">
                    <mxGeometry x="427.5" y="-280" width="30" height="30" as="geometry"/>
                </mxCell>
                <mxCell id="143" value="&lt;b&gt;&lt;font&gt;1&lt;/font&gt;&lt;/b&gt;" style="text;html=1;align=center;verticalAlign=middle;whiteSpace=wrap;rounded=0;fontSize=12;fontFamily=Courier New;fontColor=#000000;" vertex="1" parent="1">
                    <mxGeometry x="877.5" y="-260" width="30" height="30" as="geometry"/>
                </mxCell>
                <mxCell id="144" value="&lt;b&gt;&lt;font&gt;n&lt;/font&gt;&lt;/b&gt;" style="text;html=1;align=center;verticalAlign=middle;whiteSpace=wrap;rounded=0;fontSize=12;fontFamily=Courier New;fontColor=#000000;" vertex="1" parent="1">
                    <mxGeometry x="817.5" y="-360" width="30" height="30" as="geometry"/>
                </mxCell>
                <mxCell id="145" value="&lt;b&gt;&lt;font&gt;scrive&lt;/font&gt;&lt;/b&gt;" style="text;html=1;align=center;verticalAlign=middle;whiteSpace=wrap;rounded=0;fontSize=12;fontFamily=Courier New;fontColor=#000000;" vertex="1" parent="1">
                    <mxGeometry x="267.5" y="-158" width="40" height="30" as="geometry"/>
                </mxCell>
                <mxCell id="146" value="&lt;b&gt;&lt;font&gt;compra&lt;/font&gt;&lt;/b&gt;" style="text;html=1;align=center;verticalAlign=middle;whiteSpace=wrap;rounded=0;fontSize=12;fontFamily=Courier New;fontColor=#000000;" vertex="1" parent="1">
                    <mxGeometry x="257.5" y="-280" width="50" height="30" as="geometry"/>
                </mxCell>
                <mxCell id="147" value="&lt;b&gt;&lt;font&gt;contiene&lt;/font&gt;&lt;/b&gt;" style="text;html=1;align=center;verticalAlign=middle;whiteSpace=wrap;rounded=0;fontSize=12;fontFamily=Courier New;fontColor=#000000;" vertex="1" parent="1">
                    <mxGeometry x="637.5" y="-400" width="60" height="30" as="geometry"/>
                </mxCell>
                <mxCell id="148" value="&lt;b&gt;&lt;font&gt;ha&lt;/font&gt;&lt;/b&gt;" style="text;html=1;align=center;verticalAlign=middle;whiteSpace=wrap;rounded=0;fontSize=12;fontFamily=Courier New;fontColor=#000000;" vertex="1" parent="1">
                    <mxGeometry x="647.5" y="-280" width="30" height="30" as="geometry"/>
                </mxCell>
                <mxCell id="149" value="&lt;b&gt;&lt;font&gt;contiene&lt;/font&gt;&lt;/b&gt;" style="text;html=1;align=center;verticalAlign=middle;whiteSpace=wrap;rounded=0;fontSize=12;fontFamily=Courier New;fontColor=#000000;" vertex="1" parent="1">
                    <mxGeometry x="557.5" y="-128" width="60" height="30" as="geometry"/>
                </mxCell>
                <mxCell id="150" value="&lt;b&gt;&lt;font&gt;CRUD&lt;/font&gt;&lt;/b&gt;" style="text;html=1;align=center;verticalAlign=middle;whiteSpace=wrap;rounded=0;fontSize=12;fontFamily=Courier New;fontColor=#000000;" vertex="1" parent="1">
                    <mxGeometry x="787.5" y="-168" width="60" height="30" as="geometry"/>
                </mxCell>
                <mxCell id="151" value="&lt;b&gt;&lt;font&gt;CRUD&lt;/font&gt;&lt;/b&gt;" style="text;html=1;align=center;verticalAlign=middle;whiteSpace=wrap;rounded=0;fontSize=12;fontFamily=Courier New;fontColor=#000000;" vertex="1" parent="1">
                    <mxGeometry x="697.5" y="-240" width="60" height="30" as="geometry"/>
                </mxCell>
                <mxCell id="152" value="&lt;b&gt;&lt;font&gt;aggiunge/elimina&lt;/font&gt;&lt;/b&gt;" style="text;html=1;align=center;verticalAlign=middle;whiteSpace=wrap;rounded=0;fontSize=12;fontFamily=Courier New;fontColor=#000000;" vertex="1" parent="1">
                    <mxGeometry x="977.5" y="-240" width="100" height="30" as="geometry"/>
                </mxCell>
                <mxCell id="153" value="&lt;b&gt;&lt;font&gt;crea&lt;/font&gt;&lt;/b&gt;" style="text;html=1;align=center;verticalAlign=middle;whiteSpace=wrap;rounded=0;fontSize=12;fontFamily=Courier New;fontColor=#000000;" vertex="1" parent="1">
                    <mxGeometry x="877.5" y="-310" width="40" height="30" as="geometry"/>
                </mxCell>
                <mxCell id="154" value="&lt;b&gt;&lt;font&gt;ha&lt;/font&gt;&lt;/b&gt;" style="text;html=1;align=center;verticalAlign=middle;whiteSpace=wrap;rounded=0;fontSize=12;fontFamily=Courier New;fontColor=#000000;" vertex="1" parent="1">
                    <mxGeometry x="417.5" y="-198" width="40" height="30" as="geometry"/>
                </mxCell>
                <mxCell id="156" value="" style="whiteSpace=wrap;html=1;fontFamily=Courier New;strokeWidth=5;fillColor=none;fontColor=#000000;" vertex="1" parent="1">
                    <mxGeometry x="240" y="-880" width="870" height="70" as="geometry"/>
                </mxCell>
                <mxCell id="158" style="edgeStyle=none;html=1;strokeWidth=2;endArrow=blockThin;endFill=1;endSize=3;startSize=3;exitX=0;exitY=0.5;exitDx=0;exitDy=0;entryX=0;entryY=0.5;entryDx=0;entryDy=0;" edge="1" parent="1" source="82" target="88">
                    <mxGeometry relative="1" as="geometry">
                        <mxPoint x="480" y="-690" as="sourcePoint"/>
                        <mxPoint x="680" y="-610" as="targetPoint"/>
                        <Array as="points">
                            <mxPoint x="390" y="-720"/>
                            <mxPoint x="390" y="-495"/>
                        </Array>
                    </mxGeometry>
                </mxCell>
                <mxCell id="159" style="edgeStyle=none;html=1;strokeWidth=2;endArrow=blockThin;endFill=1;endSize=3;startSize=3;exitX=1;exitY=0.5;exitDx=0;exitDy=0;entryX=1;entryY=0.5;entryDx=0;entryDy=0;" edge="1" parent="1" source="83" target="87">
                    <mxGeometry relative="1" as="geometry">
                        <mxPoint x="480" y="-690" as="sourcePoint"/>
                        <mxPoint x="680" y="-610" as="targetPoint"/>
                        <Array as="points">
                            <mxPoint x="950" y="-720"/>
                            <mxPoint x="950" y="-495"/>
                        </Array>
                    </mxGeometry>
                </mxCell>
                <mxCell id="161" style="edgeStyle=none;html=1;strokeWidth=2;endArrow=blockThin;endFill=1;endSize=3;startSize=3;entryX=0.5;entryY=1;entryDx=0;entryDy=0;exitX=0.5;exitY=0;exitDx=0;exitDy=0;" edge="1" parent="1" source="104" target="105">
                    <mxGeometry relative="1" as="geometry">
                        <mxPoint x="588" y="-241" as="sourcePoint"/>
                        <mxPoint x="768" y="-298" as="targetPoint"/>
                        <Array as="points"/>
                    </mxGeometry>
                </mxCell>
                <mxCell id="162" value="&lt;b&gt;&lt;font&gt;1&lt;/font&gt;&lt;/b&gt;" style="text;html=1;align=center;verticalAlign=middle;whiteSpace=wrap;rounded=0;fontSize=12;fontFamily=Courier New;fontColor=#000000;" vertex="1" parent="1">
                    <mxGeometry x="487.5" y="-302" width="30" height="30" as="geometry"/>
                </mxCell>
                <mxCell id="163" value="&lt;b&gt;&lt;font&gt;n&lt;/font&gt;&lt;/b&gt;" style="text;html=1;align=center;verticalAlign=middle;whiteSpace=wrap;rounded=0;fontSize=12;fontFamily=Courier New;fontColor=#000000;" vertex="1" parent="1">
                    <mxGeometry x="487.5" y="-348" width="30" height="30" as="geometry"/>
                </mxCell>
                <mxCell id="164" value="&lt;b&gt;&lt;font&gt;ha&lt;/font&gt;&lt;/b&gt;" style="text;html=1;align=center;verticalAlign=middle;whiteSpace=wrap;rounded=0;fontSize=12;fontFamily=Courier New;fontColor=#000000;" vertex="1" parent="1">
                    <mxGeometry x="517.5" y="-318" width="30" height="30" as="geometry"/>
                </mxCell>
            </root>
        </mxGraphModel>
    </diagram>
</mxfile>